<mxfile host="app.diagrams.net" modified="2021-06-24T16:20:38.713Z" agent="5.0 (Windows NT 10.0; Win64; x64) AppleWebKit/537.36 (KHTML, like Gecko) Chrome/91.0.4472.114 Safari/537.36" etag="4OUvrRmS0Zewn5Oe__Vb" version="14.8.0" type="github">
  <diagram id="C5RBs43oDa-KdzZeNtuy" name="Page-1">
    <mxGraphModel dx="782" dy="475" grid="1" gridSize="10" guides="1" tooltips="1" connect="1" arrows="1" fold="1" page="1" pageScale="1" pageWidth="827" pageHeight="1169" math="0" shadow="0">
      <root>
        <mxCell id="WIyWlLk6GJQsqaUBKTNV-0" />
        <mxCell id="WIyWlLk6GJQsqaUBKTNV-1" parent="WIyWlLk6GJQsqaUBKTNV-0" />
        <mxCell id="uFuNA9i8frYfYMS0UgUH-12" style="edgeStyle=orthogonalEdgeStyle;rounded=0;orthogonalLoop=1;jettySize=auto;html=1;exitX=0.5;exitY=1;exitDx=0;exitDy=0;exitPerimeter=0;entryX=0.5;entryY=0;entryDx=0;entryDy=0;" edge="1" parent="WIyWlLk6GJQsqaUBKTNV-1" source="uFuNA9i8frYfYMS0UgUH-0" target="uFuNA9i8frYfYMS0UgUH-1">
          <mxGeometry relative="1" as="geometry" />
        </mxCell>
        <mxCell id="uFuNA9i8frYfYMS0UgUH-0" value="Start" style="strokeWidth=2;html=1;shape=mxgraph.flowchart.start_1;whiteSpace=wrap;" vertex="1" parent="WIyWlLk6GJQsqaUBKTNV-1">
          <mxGeometry x="270" y="80" width="100" height="60" as="geometry" />
        </mxCell>
        <mxCell id="uFuNA9i8frYfYMS0UgUH-13" style="edgeStyle=orthogonalEdgeStyle;rounded=0;orthogonalLoop=1;jettySize=auto;html=1;exitX=0.5;exitY=1;exitDx=0;exitDy=0;entryX=0.5;entryY=0;entryDx=0;entryDy=0;entryPerimeter=0;" edge="1" parent="WIyWlLk6GJQsqaUBKTNV-1" source="uFuNA9i8frYfYMS0UgUH-1" target="uFuNA9i8frYfYMS0UgUH-4">
          <mxGeometry relative="1" as="geometry" />
        </mxCell>
        <mxCell id="uFuNA9i8frYfYMS0UgUH-1" value="Player spawns at&lt;br&gt;(100, 150) and starts moving" style="shape=parallelogram;html=1;strokeWidth=2;perimeter=parallelogramPerimeter;whiteSpace=wrap;rounded=1;arcSize=12;size=0.23;" vertex="1" parent="WIyWlLk6GJQsqaUBKTNV-1">
          <mxGeometry x="247.5" y="170" width="145" height="60" as="geometry" />
        </mxCell>
        <mxCell id="uFuNA9i8frYfYMS0UgUH-14" style="edgeStyle=orthogonalEdgeStyle;rounded=0;orthogonalLoop=1;jettySize=auto;html=1;exitX=1;exitY=0.5;exitDx=0;exitDy=0;exitPerimeter=0;" edge="1" parent="WIyWlLk6GJQsqaUBKTNV-1" source="uFuNA9i8frYfYMS0UgUH-4" target="uFuNA9i8frYfYMS0UgUH-5">
          <mxGeometry relative="1" as="geometry" />
        </mxCell>
        <mxCell id="uFuNA9i8frYfYMS0UgUH-16" style="edgeStyle=orthogonalEdgeStyle;rounded=0;orthogonalLoop=1;jettySize=auto;html=1;exitX=0.5;exitY=1;exitDx=0;exitDy=0;exitPerimeter=0;entryX=0.5;entryY=0;entryDx=0;entryDy=0;" edge="1" parent="WIyWlLk6GJQsqaUBKTNV-1" source="uFuNA9i8frYfYMS0UgUH-4" target="uFuNA9i8frYfYMS0UgUH-8">
          <mxGeometry relative="1" as="geometry" />
        </mxCell>
        <mxCell id="uFuNA9i8frYfYMS0UgUH-4" value="if Player hits a spike" style="strokeWidth=2;html=1;shape=mxgraph.flowchart.decision;whiteSpace=wrap;" vertex="1" parent="WIyWlLk6GJQsqaUBKTNV-1">
          <mxGeometry x="270" y="250" width="100" height="100" as="geometry" />
        </mxCell>
        <mxCell id="uFuNA9i8frYfYMS0UgUH-15" style="edgeStyle=orthogonalEdgeStyle;rounded=0;orthogonalLoop=1;jettySize=auto;html=1;exitX=0.5;exitY=1;exitDx=0;exitDy=0;entryX=1;entryY=0.75;entryDx=0;entryDy=0;" edge="1" parent="WIyWlLk6GJQsqaUBKTNV-1" source="uFuNA9i8frYfYMS0UgUH-5" target="uFuNA9i8frYfYMS0UgUH-8">
          <mxGeometry relative="1" as="geometry">
            <Array as="points">
              <mxPoint x="474" y="430" />
            </Array>
          </mxGeometry>
        </mxCell>
        <mxCell id="uFuNA9i8frYfYMS0UgUH-5" value="Player respawns&lt;br&gt;at (100, 199)" style="shape=parallelogram;html=1;strokeWidth=2;perimeter=parallelogramPerimeter;whiteSpace=wrap;rounded=1;arcSize=12;size=0.23;" vertex="1" parent="WIyWlLk6GJQsqaUBKTNV-1">
          <mxGeometry x="414" y="270" width="120" height="60" as="geometry" />
        </mxCell>
        <mxCell id="uFuNA9i8frYfYMS0UgUH-18" style="edgeStyle=orthogonalEdgeStyle;rounded=0;orthogonalLoop=1;jettySize=auto;html=1;exitX=1;exitY=0.5;exitDx=0;exitDy=0;exitPerimeter=0;entryX=0;entryY=0.5;entryDx=0;entryDy=0;" edge="1" parent="WIyWlLk6GJQsqaUBKTNV-1" source="uFuNA9i8frYfYMS0UgUH-6" target="uFuNA9i8frYfYMS0UgUH-7">
          <mxGeometry relative="1" as="geometry" />
        </mxCell>
        <mxCell id="uFuNA9i8frYfYMS0UgUH-20" style="edgeStyle=orthogonalEdgeStyle;rounded=0;orthogonalLoop=1;jettySize=auto;html=1;exitX=0.5;exitY=1;exitDx=0;exitDy=0;exitPerimeter=0;" edge="1" parent="WIyWlLk6GJQsqaUBKTNV-1" source="uFuNA9i8frYfYMS0UgUH-6" target="uFuNA9i8frYfYMS0UgUH-10">
          <mxGeometry relative="1" as="geometry" />
        </mxCell>
        <mxCell id="uFuNA9i8frYfYMS0UgUH-6" value="if player hits coin" style="strokeWidth=2;html=1;shape=mxgraph.flowchart.decision;whiteSpace=wrap;" vertex="1" parent="WIyWlLk6GJQsqaUBKTNV-1">
          <mxGeometry x="270" y="480" width="100" height="100" as="geometry" />
        </mxCell>
        <mxCell id="uFuNA9i8frYfYMS0UgUH-19" style="edgeStyle=orthogonalEdgeStyle;rounded=0;orthogonalLoop=1;jettySize=auto;html=1;exitX=0.5;exitY=1;exitDx=0;exitDy=0;entryX=1;entryY=0.5;entryDx=0;entryDy=0;" edge="1" parent="WIyWlLk6GJQsqaUBKTNV-1" source="uFuNA9i8frYfYMS0UgUH-7" target="uFuNA9i8frYfYMS0UgUH-10">
          <mxGeometry relative="1" as="geometry">
            <Array as="points">
              <mxPoint x="474" y="640" />
            </Array>
          </mxGeometry>
        </mxCell>
        <mxCell id="uFuNA9i8frYfYMS0UgUH-7" value="score = &lt;br&gt;score + 1" style="shape=parallelogram;html=1;strokeWidth=2;perimeter=parallelogramPerimeter;whiteSpace=wrap;rounded=1;arcSize=12;size=0.23;" vertex="1" parent="WIyWlLk6GJQsqaUBKTNV-1">
          <mxGeometry x="429" y="500" width="90" height="60" as="geometry" />
        </mxCell>
        <mxCell id="uFuNA9i8frYfYMS0UgUH-17" style="edgeStyle=orthogonalEdgeStyle;rounded=0;orthogonalLoop=1;jettySize=auto;html=1;exitX=0.5;exitY=1;exitDx=0;exitDy=0;entryX=0.5;entryY=0;entryDx=0;entryDy=0;entryPerimeter=0;" edge="1" parent="WIyWlLk6GJQsqaUBKTNV-1" source="uFuNA9i8frYfYMS0UgUH-8" target="uFuNA9i8frYfYMS0UgUH-6">
          <mxGeometry relative="1" as="geometry" />
        </mxCell>
        <mxCell id="uFuNA9i8frYfYMS0UgUH-8" value="Player jumps&lt;br&gt;and avoids spike" style="shape=parallelogram;html=1;strokeWidth=2;perimeter=parallelogramPerimeter;whiteSpace=wrap;rounded=1;arcSize=12;size=0.23;" vertex="1" parent="WIyWlLk6GJQsqaUBKTNV-1">
          <mxGeometry x="255" y="390" width="130" height="60" as="geometry" />
        </mxCell>
        <mxCell id="uFuNA9i8frYfYMS0UgUH-22" style="edgeStyle=orthogonalEdgeStyle;rounded=0;orthogonalLoop=1;jettySize=auto;html=1;exitX=0.5;exitY=1;exitDx=0;exitDy=0;exitPerimeter=0;entryX=0.5;entryY=0;entryDx=0;entryDy=0;" edge="1" parent="WIyWlLk6GJQsqaUBKTNV-1" source="uFuNA9i8frYfYMS0UgUH-9" target="uFuNA9i8frYfYMS0UgUH-11">
          <mxGeometry relative="1" as="geometry" />
        </mxCell>
        <mxCell id="uFuNA9i8frYfYMS0UgUH-26" style="edgeStyle=orthogonalEdgeStyle;rounded=0;orthogonalLoop=1;jettySize=auto;html=1;exitX=1;exitY=0.5;exitDx=0;exitDy=0;exitPerimeter=0;entryX=0;entryY=0.5;entryDx=0;entryDy=0;" edge="1" parent="WIyWlLk6GJQsqaUBKTNV-1" source="uFuNA9i8frYfYMS0UgUH-9" target="uFuNA9i8frYfYMS0UgUH-25">
          <mxGeometry relative="1" as="geometry" />
        </mxCell>
        <mxCell id="uFuNA9i8frYfYMS0UgUH-9" value="if player hits the portal" style="strokeWidth=2;html=1;shape=mxgraph.flowchart.decision;whiteSpace=wrap;" vertex="1" parent="WIyWlLk6GJQsqaUBKTNV-1">
          <mxGeometry x="270" y="690" width="100" height="100" as="geometry" />
        </mxCell>
        <mxCell id="uFuNA9i8frYfYMS0UgUH-21" style="edgeStyle=orthogonalEdgeStyle;rounded=0;orthogonalLoop=1;jettySize=auto;html=1;exitX=0.5;exitY=1;exitDx=0;exitDy=0;entryX=0.5;entryY=0;entryDx=0;entryDy=0;entryPerimeter=0;" edge="1" parent="WIyWlLk6GJQsqaUBKTNV-1" source="uFuNA9i8frYfYMS0UgUH-10" target="uFuNA9i8frYfYMS0UgUH-9">
          <mxGeometry relative="1" as="geometry" />
        </mxCell>
        <mxCell id="uFuNA9i8frYfYMS0UgUH-10" value="score&lt;br&gt;stays the&lt;br&gt;same" style="shape=parallelogram;html=1;strokeWidth=2;perimeter=parallelogramPerimeter;whiteSpace=wrap;rounded=1;arcSize=12;size=0.23;" vertex="1" parent="WIyWlLk6GJQsqaUBKTNV-1">
          <mxGeometry x="270" y="610" width="100" height="60" as="geometry" />
        </mxCell>
        <mxCell id="uFuNA9i8frYfYMS0UgUH-24" style="edgeStyle=orthogonalEdgeStyle;rounded=0;orthogonalLoop=1;jettySize=auto;html=1;exitX=0.5;exitY=1;exitDx=0;exitDy=0;entryX=0.5;entryY=0;entryDx=0;entryDy=0;entryPerimeter=0;" edge="1" parent="WIyWlLk6GJQsqaUBKTNV-1" source="uFuNA9i8frYfYMS0UgUH-11" target="uFuNA9i8frYfYMS0UgUH-23">
          <mxGeometry relative="1" as="geometry" />
        </mxCell>
        <mxCell id="uFuNA9i8frYfYMS0UgUH-11" value="goes to menuScene" style="shape=parallelogram;html=1;strokeWidth=2;perimeter=parallelogramPerimeter;whiteSpace=wrap;rounded=1;arcSize=12;size=0.23;" vertex="1" parent="WIyWlLk6GJQsqaUBKTNV-1">
          <mxGeometry x="270" y="830" width="100" height="60" as="geometry" />
        </mxCell>
        <mxCell id="uFuNA9i8frYfYMS0UgUH-23" value="Stop (press Start button and replay tutorial)" style="strokeWidth=2;html=1;shape=mxgraph.flowchart.terminator;whiteSpace=wrap;" vertex="1" parent="WIyWlLk6GJQsqaUBKTNV-1">
          <mxGeometry x="270" y="940" width="100" height="60" as="geometry" />
        </mxCell>
        <mxCell id="uFuNA9i8frYfYMS0UgUH-25" value="play until you reach it" style="shape=parallelogram;html=1;strokeWidth=2;perimeter=parallelogramPerimeter;whiteSpace=wrap;rounded=1;arcSize=12;size=0.23;" vertex="1" parent="WIyWlLk6GJQsqaUBKTNV-1">
          <mxGeometry x="419" y="710" width="100" height="60" as="geometry" />
        </mxCell>
      </root>
    </mxGraphModel>
  </diagram>
</mxfile>
